<?xml version="1.0" standalone="no"?>
<!DOCTYPE svg PUBLIC "-//W3C//DTD SVG 20010904//EN"
 "http://www.w3.org/TR/2001/REC-SVG-20010904/DTD/svg10.dtd">
<svg version="1.0" xmlns="http://www.w3.org/2000/svg"
 width="500.000000pt" height="500.000000pt" viewBox="0 0 500.000000 500.000000"
 preserveAspectRatio="xMidYMid meet">
<metadata>
Created by potrace 1.11, written by Peter Selinger 2001-2013
</metadata>
<g transform="translate(0.000000,500.000000) scale(0.100000,-0.100000)"
fill="#000000" stroke="none">
<path d="M1800 4850 l0 -50 -100 0 -100 0 0 -50 0 -50 -100 0 -100 0 0 -50 0
-50 -100 0 -100 0 0 -50 0 -50 -50 0 -50 0 0 -50 0 -50 50 0 50 0 0 -50 0 -50
-50 0 -50 0 0 -50 c0 -49 1 -50 30 -50 l29 0 -6 -50 c-6 -49 -5 -50 21 -50 25
0 26 -3 26 -50 l0 -50 -44 0 -43 0 -7 -77 c-3 -42 -6 -132 -6 -200 l0 -123 50
0 50 0 0 -50 0 -50 -50 0 -50 0 0 -50 0 -50 -50 0 -50 0 0 -250 0 -250 50 0
50 0 0 -100 0 -100 50 0 50 0 0 -50 0 -50 -50 0 -50 0 0 -100 0 -100 -50 0
-50 0 0 -100 0 -100 -50 0 -50 0 0 -50 0 -50 -51 0 -50 0 1 -52 c1 -29 1 -97
1 -150 l-1 -98 -50 0 -50 0 0 -50 0 -50 -50 0 -50 0 0 -100 0 -100 -50 0 -50
0 0 -150 0 -150 50 0 50 0 0 -50 0 -50 50 0 50 0 0 -50 0 -50 50 0 50 0 0 -50
0 -50 50 0 50 0 0 -50 0 -50 50 0 50 0 0 -50 0 -50 50 0 50 0 0 -50 0 -50 50
0 50 0 1 88 0 87 17 -34 c11 -23 13 -35 6 -38 -13 -4 -6 -49 10 -61 6 -5 23
-12 39 -14 26 -5 27 -3 27 33 l0 39 50 0 50 0 0 50 0 50 50 0 50 0 0 50 0 50
50 0 50 0 0 200 0 200 50 0 50 0 0 -100 0 -100 50 0 50 0 0 -50 0 -50 50 0 50
0 0 -50 0 -50 50 0 50 0 0 -100 0 -100 50 0 50 0 0 -50 0 -50 50 0 50 0 0 -50
0 -50 50 0 50 0 0 -85 c0 -47 2 -85 4 -85 2 0 25 9 50 20 l46 19 0 -34 0 -35
-200 0 -200 0 0 -50 0 -50 500 0 500 0 0 50 0 50 -50 0 c-27 0 -50 5 -50 10 0
6 23 10 50 10 l50 0 0 40 0 40 50 0 50 0 0 50 0 50 50 0 50 0 0 50 0 50 50 0
50 0 0 100 0 100 50 0 50 0 0 200 c0 171 2 200 15 200 11 0 15 -12 15 -50 l0
-50 35 0 35 0 0 200 0 200 -50 0 -50 0 0 50 0 50 100 0 c111 0 112 1 89 69
l-11 31 -89 0 -89 0 0 50 0 50 50 0 50 0 -1 150 -2 150 -48 0 -49 0 0 -150 0
-150 -150 0 -150 0 0 50 0 50 50 0 50 0 0 150 0 150 -50 0 -50 0 0 -50 0 -50
-50 0 -50 0 0 -50 0 -50 -50 0 -50 0 0 -50 0 -50 50 0 50 0 0 -50 0 -50 -150
0 -150 0 0 -40 0 -40 40 0 c29 0 40 4 40 15 0 8 5 15 10 15 6 0 10 -11 10 -25
l0 -25 -100 0 -100 0 0 50 0 50 -100 0 -100 0 0 50 0 50 -100 0 -100 0 0 50 0
50 -50 0 -50 0 0 50 0 50 -45 0 c-41 0 -45 -2 -36 -18 6 -11 23 -33 40 -50
l29 -32 -44 0 -44 0 0 50 0 50 -50 0 -50 0 0 50 0 50 -50 0 -50 0 0 50 0 50
-50 0 -50 0 0 300 0 300 -44 0 -45 0 -4 -47 c-2 -27 -4 63 -5 200 l-2 247 50
0 50 0 0 200 0 200 100 0 100 0 0 50 0 50 100 0 100 0 0 -50 0 -50 -50 0 -50
0 0 -50 0 -50 100 0 100 0 0 -50 0 -50 -100 0 -100 0 0 -150 0 -150 300 0 300
0 0 50 0 50 50 0 50 0 0 50 0 50 50 0 50 0 0 150 0 150 50 0 50 0 0 100 0 100
100 0 100 0 0 -100 0 -100 -50 0 -50 0 0 -50 0 -50 50 0 50 0 0 -50 0 -50 50
0 50 0 0 -50 0 -50 100 0 100 0 0 50 0 50 50 0 50 0 0 50 0 50 50 0 50 0 0
-100 0 -100 43 0 c39 1 40 2 23 15 -10 8 -22 16 -26 17 -4 2 -10 18 -13 36 -6
32 -6 32 33 32 l40 0 0 200 0 200 -50 0 -50 0 0 -100 0 -100 -50 0 -50 0 0
150 0 150 30 0 c28 0 29 2 23 33 -3 17 -13 40 -21 50 -14 16 -12 17 26 17 l42
0 0 250 0 250 -49 0 c-27 0 -51 -5 -53 -10 -1 -6 -1 39 0 100 l4 110 -151 0
-151 0 0 50 0 50 -400 0 -400 0 0 -50 0 -50 -50 0 -50 0 0 50 0 50 -250 0
-250 0 0 -50z m1699 -542 l-1 -93 -10 65 c-5 37 -17 77 -29 93 l-20 27 31 0
30 0 -1 -92z m1 -158 c0 -46 -2 -50 -24 -50 -19 0 -26 7 -31 28 -3 15 -15 34
-25 42 -31 23 -24 30 30 30 l50 0 0 -50z m-1000 -600 l0 -50 -50 0 -50 0 0 50
0 50 50 0 50 0 0 -50z m900 0 l0 -50 -50 0 -50 0 0 50 0 50 50 0 50 0 0 -50z
m-2100 -100 l0 -50 -50 0 -50 0 0 -50 0 -50 -40 0 -40 0 0 -50 0 -50 40 0 40
0 0 -50 0 -50 -50 0 -50 0 0 150 0 150 50 0 50 0 0 50 0 50 50 0 50 0 0 -50z
m1025 -160 c-44 -3 -90 -12 -102 -18 -21 -11 -23 -10 -23 8 0 19 6 20 103 18
l102 -1 -80 -7z m-990 -513 c-4 -12 -1 -35 4 -50 10 -25 9 -27 -14 -27 -23 0
-25 3 -25 50 0 43 3 50 20 50 16 0 19 -5 15 -23z m165 -77 l0 -100 -50 0 -50
0 0 100 0 100 50 0 50 0 0 -100z m-200 -900 l0 -200 -50 0 -50 0 0 -50 0 -50
-50 0 -50 0 0 150 0 150 50 0 50 0 0 100 0 100 50 0 50 0 0 -200z m1800 -90
c0 -5 -8 -10 -17 -10 -15 0 -16 2 -3 10 19 12 20 12 20 0z m200 -210 l0 -100
-50 0 -50 0 0 -50 0 -50 -100 0 -100 0 0 -50 0 -50 -300 0 -300 0 0 50 0 50
-150 0 c-146 0 -150 1 -150 21 0 19 4 20 34 15 42 -8 66 1 66 25 0 14 7 19 30
19 17 0 30 -4 30 -10 0 -5 9 -10 20 -10 13 0 20 7 20 20 0 17 -7 20 -50 20
l-50 0 0 40 c0 38 12 52 25 30 3 -5 22 -10 41 -10 26 0 34 -4 34 -19 0 -16 8
-18 57 -17 36 0 58 -4 61 -12 2 -7 21 -12 43 -12 39 0 39 0 39 40 l0 41 50 -7
c42 -6 50 -4 50 10 0 14 22 16 200 16 l200 0 0 50 0 50 150 0 150 0 0 -100z
m107 -177 c-2 -16 -4 -5 -4 22 0 28 2 40 4 28 2 -13 2 -35 0 -50z"/>
<path d="M2700 2650 l0 -250 -50 0 -50 0 0 -150 0 -150 50 0 50 0 0 50 0 50
100 0 100 0 0 50 0 50 150 0 150 0 0 50 0 50 50 0 50 0 0 -50 0 -50 50 0 50 0
0 -50 0 -50 100 0 100 0 0 50 0 50 -50 0 -50 0 0 50 0 50 -50 0 -50 0 0 50 0
50 -50 0 -50 0 0 50 0 50 -150 0 -150 0 0 31 c0 17 6 37 14 45 18 17 72 19 79
2 3 -7 6 17 6 55 l1 67 100 0 100 0 0 50 0 50 -300 0 -300 0 0 -250z m200
-300 l0 -50 -50 0 -50 0 0 50 0 50 50 0 50 0 0 -50z"/>
<path d="M3600 2650 l0 -250 50 0 50 0 0 50 c0 33 -4 50 -12 50 -10 0 -12 35
-10 150 l3 150 -37 0 -37 0 5 50 c3 28 1 50 -3 50 -5 0 -9 -112 -9 -250z"/>
<path d="M3900 1550 l0 -50 50 0 50 0 0 -50 0 -50 51 0 c58 0 61 13 11 45 -17
11 -31 26 -32 33 0 7 -7 15 -15 18 -11 4 -15 21 -15 55 l0 49 -50 0 -50 0 0
-50z"/>
<path d="M4200 1350 l0 -50 50 0 50 0 0 -100 0 -100 50 0 50 0 0 100 0 100
-50 0 -50 0 0 50 0 50 -50 0 -50 0 0 -50z"/>
<path d="M4200 1068 c1 -31 1 -32 15 -14 19 25 19 46 0 46 -10 0 -15 -10 -15
-32z"/>
<path d="M4100 978 c0 -12 1 -19 3 -17 1 2 9 12 16 22 12 14 11 17 -3 17 -10
0 -16 -8 -16 -22z"/>
<path d="M4000 870 c0 -26 3 -29 18 -21 9 5 26 19 36 30 19 21 19 21 -17 21
-34 0 -37 -2 -37 -30z"/>
<path d="M1900 820 c0 -11 7 -20 15 -20 17 0 18 2 9 24 -9 23 -24 20 -24 -4z"/>
<path d="M3900 750 l0 -50 -50 0 -50 0 0 -50 0 -50 -50 0 -50 0 0 -50 0 -50
50 0 50 0 0 50 0 50 50 0 50 0 0 49 0 49 50 12 c49 12 50 12 50 51 l0 39 -50
0 -50 0 0 -50z"/>
<path d="M1300 550 l0 -50 50 0 50 0 0 -50 0 -50 50 0 c28 0 50 5 50 10 0 13
41 13 74 0 26 -9 26 -9 26 40 l0 50 -100 0 -100 0 0 50 0 50 -50 0 -50 0 0
-50z"/>
<path d="M3500 450 l0 -50 50 0 50 0 0 50 0 50 -50 0 -50 0 0 -50z"/>
<path d="M1700 350 l0 -50 50 0 50 0 0 50 0 50 -50 0 -50 0 0 -50z"/>
<path d="M1820 386 c8 -7 30 -18 48 -24 30 -10 32 -10 32 14 0 22 -4 24 -47
24 -41 0 -45 -2 -33 -14z"/>
<path d="M3200 364 c0 -32 2 -35 23 -28 50 15 67 24 67 34 0 5 3 9 8 8 4 0 14
1 22 5 8 3 22 8 30 10 8 3 -22 6 -67 6 l-83 1 0 -36z"/>
</g>
</svg>
